<svg xmlns="http://www.w3.org/2000/svg" width="27.755" height="26.941" viewBox="0 0 27.755 26.941">
  <path id="dislike-dr" d="M23.129,26.5h3.7a.944.944,0,0,0,.925-.962v-15.4a.944.944,0,0,0-.925-.962h-3.7a.944.944,0,0,0-.925.962v15.4a.944.944,0,0,0,.925.962ZM.019,23.944A2.944,2.944,0,0,0,2.967,26.5H10.18a17.215,17.215,0,0,0-.927,5.689,3.928,3.928,0,0,0,3.862,3.933h.763a.906.906,0,0,0,.654-.282.982.982,0,0,0,.271-.681c0-2.225.833-6.241,2.4-7.875a10.211,10.211,0,0,1,3.147-2.114V10.727a20.894,20.894,0,0,0-7.631-1.552H6.671A2.907,2.907,0,0,0,3.9,13.126,2.8,2.8,0,0,0,2.144,14.62a2.994,2.994,0,0,0-.1,2.355,2.931,2.931,0,0,0-1.337,4.71,2.957,2.957,0,0,0-.69,2.26Z" transform="translate(0 -9.176)" fill="#585858" fill-rule="evenodd"/>
</svg>
