<svg xmlns="http://www.w3.org/2000/svg" xmlns:xlink="http://www.w3.org/1999/xlink" width="41" height="39.8" viewBox="0 0 41 39.8">
  <defs>
    <linearGradient id="linear-gradient" x1="-0.234" y1="0.5" x2="1.145" y2="-0.37" gradientUnits="objectBoundingBox">
      <stop offset="0" stop-color="#ffa145" stop-opacity="0.749"/>
      <stop offset="1" stop-color="#fe6845"/>
    </linearGradient>
  </defs>
  <path id="dislike" d="M34.167,34.761h5.467A1.4,1.4,0,0,0,41,33.34V10.6a1.4,1.4,0,0,0-1.367-1.421H34.167A1.4,1.4,0,0,0,32.8,10.6V33.34A1.4,1.4,0,0,0,34.167,34.761ZM.028,30.993a4.349,4.349,0,0,0,4.355,3.768H15.038c-.905,1.686-1.391,6.456-1.37,8.4a5.8,5.8,0,0,0,5.7,5.81H20.5a1.339,1.339,0,0,0,.966-.416,1.451,1.451,0,0,0,.4-1.006c0-3.287,1.231-9.22,3.551-11.634A15.084,15.084,0,0,1,30.067,32.8V11.468A30.864,30.864,0,0,0,18.794,9.176H9.854a4.3,4.3,0,0,0-4.1,5.836,4.137,4.137,0,0,0-2.588,2.207A4.422,4.422,0,0,0,3.022,20.7a4.33,4.33,0,0,0-1.975,6.957A4.368,4.368,0,0,0,.028,30.993Z" transform="translate(0 -9.176)" fill-rule="evenodd" fill="url(#linear-gradient)"/>
</svg>
