<svg xmlns="http://www.w3.org/2000/svg" width="125.588" height="125.597" viewBox="0 0 125.588 125.597">
  <g id="email-item" transform="translate(0 0.036)">
    <g id="_015---Email" data-name="015---Email" transform="translate(0 -0.036)">
      <path id="Shape" d="M180,141.652a46.286,46.286,0,0,1-13.824-2.18,20.909,20.909,0,0,1-13.89-15.831c-1.576-7.591,1.3-15.617,7.878-22.02q1.059-1.032,2.2-1.977A26.678,26.678,0,0,1,186.652,94.4a20.338,20.338,0,0,1,14.143,18.705,19.269,19.269,0,0,1-4.5,13.618,10.588,10.588,0,0,1-10.353,3.8,5.979,5.979,0,0,1-3.845-2.669,5.683,5.683,0,0,1-.552-4.416c1.831-6.919,3.692-17.434,3.71-17.54a2.094,2.094,0,1,1,4.123.728c-.078.437-1.91,10.795-3.786,17.883a1.51,1.51,0,0,0,.093,1.191,1.863,1.863,0,0,0,1.214.748,6.5,6.5,0,0,0,6.248-2.481,15.068,15.068,0,0,0,3.475-10.648A16.191,16.191,0,0,0,185.408,98.4a22.4,22.4,0,0,0-20.375,4.469c-.673.558-1.327,1.143-1.954,1.754-3.254,3.165-8.45,9.733-6.7,18.169a16.949,16.949,0,0,0,11.062,12.694c9.817,3.132,23.923,3.509,31.355-5.733a2.093,2.093,0,0,1,3.262,2.622c-5.5,6.835-13.859,9.28-22.064,9.28Z" transform="translate(-114.609 -70.498)" fill="#34aed5"/>
      <path id="Shape-2" data-name="Shape" d="M207.424,163.08a9.624,9.624,0,0,1-6.111-2.054c-4.018-3.215-4.128-8.8-3-12.6a19.176,19.176,0,0,1,1.52-3.653,17.16,17.16,0,0,1,7.19-7.462,9.9,9.9,0,0,1,11.645,1.875A15.661,15.661,0,0,1,222,144.929a2.093,2.093,0,0,1-3.943,1.4,11.678,11.678,0,0,0-2.42-4.261,5.667,5.667,0,0,0-6.769-1.011,13.121,13.121,0,0,0-5.369,5.72,15,15,0,0,0-1.18,2.837c-.813,2.751-.635,6.342,1.61,8.14,2.454,1.97,6.593,1.137,8.922-.872a23.336,23.336,0,0,0,4.424-5.382,2.093,2.093,0,1,1,3.556,2.207,27.484,27.484,0,0,1-5.237,6.337,12.859,12.859,0,0,1-8.174,3.031Z" transform="translate(-149.203 -102.778)" fill="#34aed5"/>
      <path id="Shape-3" data-name="Shape" d="M119.309,247.948H6.279A6.286,6.286,0,0,1,0,241.668V164.222a2.093,2.093,0,0,1,3.431-1.61L54.79,205.3a12.569,12.569,0,0,0,16.01,0l51.354-42.681a2.093,2.093,0,0,1,3.433,1.61v77.446A6.286,6.286,0,0,1,119.309,247.948ZM4.186,168.683v72.985a2.1,2.1,0,0,0,2.093,2.093H119.309a2.1,2.1,0,0,0,2.093-2.093V168.683L73.473,208.516a16.765,16.765,0,0,1-21.356,0Z" transform="translate(0 -122.351)" fill="#34aed5"/>
      <path id="Shape-4" data-name="Shape" d="M2.1,125.269a2.093,2.093,0,0,1-1.212-3.8l18.838-13.354a2.093,2.093,0,0,1,2.42,3.415L3.3,124.884a2.08,2.08,0,0,1-1.208.385Z" transform="translate(0 -81.305)" fill="#34aed5"/>
      <path id="Shape-5" data-name="Shape" d="M439.117,125.269a2.08,2.08,0,0,1-1.208-.385L419.071,111.53a2.093,2.093,0,0,1,2.42-3.415l18.838,13.354a2.093,2.093,0,0,1-1.212,3.8Z" transform="translate(-315.624 -81.305)" fill="#34aed5"/>
      <path id="Shape-6" data-name="Shape" d="M209.392,14.625a2.087,2.087,0,0,1-1.209-.385l-10.005-7.1a12.58,12.58,0,0,0-16.123-.1l-10.131,7.193a2.094,2.094,0,1,1-2.422-3.415l10.005-7.1a16.668,16.668,0,0,1,21.218.1l9.88,7a2.093,2.093,0,0,1-1.212,3.8Z" transform="translate(-127.259 0.036)" fill="#34aed5"/>
      <path id="Shape-7" data-name="Shape" d="M7.634,372.358a2.093,2.093,0,0,1-1.34-3.7L54.059,328.97a2.093,2.093,0,1,1,2.676,3.219L8.97,371.875a2.087,2.087,0,0,1-1.336.484Z" transform="translate(-4.18 -247.892)" fill="#34aed5"/>
      <path id="Shape-8" data-name="Shape" d="M344.456,372.359a2.08,2.08,0,0,1-1.335-.483L295.356,332.19a2.093,2.093,0,1,1,2.676-3.219L345.8,368.656a2.093,2.093,0,0,1-1.34,3.7Z" transform="translate(-222.325 -247.892)" fill="#34aed5"/>
      <path id="Shape-9" data-name="Shape" d="M162.619,91.809a2.093,2.093,0,0,1-2.093-2.093V46.865c-.006.044-.09-.015-.23-.016H81.216a.339.339,0,0,0-.251.09l.021,42.777a2.093,2.093,0,0,1-4.186,0V46.849a4.31,4.31,0,0,1,4.416-4.186H160.3a4.31,4.31,0,0,1,4.416,4.186V89.716A2.093,2.093,0,0,1,162.619,91.809Z" transform="translate(-57.962 -32.188)" fill="#34aed5"/>
    </g>
  </g>
</svg>
