<svg xmlns="http://www.w3.org/2000/svg" xmlns:xlink="http://www.w3.org/1999/xlink" width="41" height="39.8" viewBox="0 0 41 39.8">
  <defs>
    <linearGradient id="linear-gradient" x1="1.234" y1="0.5" x2="-0.145" y2="1.37" gradientUnits="objectBoundingBox">
      <stop offset="0" stop-color="#ffa145" stop-opacity="0.749"/>
      <stop offset="1" stop-color="#fe6845"/>
    </linearGradient>
  </defs>
  <path id="like" d="M6.833,23.39H1.367A1.4,1.4,0,0,0,0,24.811V47.554a1.4,1.4,0,0,0,1.367,1.421H6.833A1.4,1.4,0,0,0,8.2,47.554V24.811A1.4,1.4,0,0,0,6.833,23.39Zm34.139,3.768a4.349,4.349,0,0,0-4.355-3.768H25.962c.905-1.686,1.391-6.456,1.37-8.4a5.8,5.8,0,0,0-5.7-5.81H20.5a1.339,1.339,0,0,0-.966.416,1.451,1.451,0,0,0-.4,1.006c0,3.287-1.231,9.22-3.551,11.634a15.084,15.084,0,0,1-4.648,3.124V46.683a30.864,30.864,0,0,0,11.273,2.293h8.94a4.3,4.3,0,0,0,4.1-5.836,4.137,4.137,0,0,0,2.588-2.207,4.422,4.422,0,0,0,.144-3.479A4.33,4.33,0,0,0,39.953,30.5a4.368,4.368,0,0,0,1.019-3.339Z" transform="translate(0 -9.176)" fill-rule="evenodd" fill="url(#linear-gradient)"/>
</svg>
