<svg xmlns="http://www.w3.org/2000/svg" width="27.755" height="26.943" viewBox="0 0 27.755 26.943">
  <path id="like-dr" d="M4.626,18.8H.925A.944.944,0,0,0,0,19.76v15.4a.944.944,0,0,0,.925.962h3.7a.944.944,0,0,0,.925-.962V19.76a.944.944,0,0,0-.925-.962Zm23.11,2.551A2.944,2.944,0,0,0,24.788,18.8H17.575a17.216,17.216,0,0,0,.927-5.689,3.928,3.928,0,0,0-3.862-3.933h-.763a.906.906,0,0,0-.654.282.982.982,0,0,0-.271.681c0,2.225-.833,6.241-2.4,7.876A10.211,10.211,0,0,1,7.4,20.128V34.566a20.893,20.893,0,0,0,7.631,1.552h6.052a2.908,2.908,0,0,0,2.775-3.95,2.8,2.8,0,0,0,1.752-1.494,2.994,2.994,0,0,0,.1-2.355,2.931,2.931,0,0,0,1.337-4.71,2.957,2.957,0,0,0,.69-2.26Z" transform="translate(0 -9.176)" fill="#585858" fill-rule="evenodd"/>
</svg>
