<svg xmlns="http://www.w3.org/2000/svg" width="112.132" height="71.888" viewBox="0 0 112.132 71.888">
  <g id="logo" transform="translate(-36.061 -41.5)">
    <path id="Union_2" data-name="Union 2" d="M96.677,66.874a4.014,4.014,0,1,1,4.014,4.014A4.014,4.014,0,0,1,96.677,66.874Zm-14.33,4,6.839-15.29L81.349,36.836V26.569h5.914l6.892,18.789,6.839-18.789h9.884l-18.7,44.309Zm-65-14.278V8.706H7.334l.013-.013H0V0H44.851V8.706H27.962V56.6ZM71.989,11.274h7.57v37.78l-7.57,7.509Zm-9.6,0h7.57v37.78l-7.57,7.509ZM38.814,56.02a11.489,11.489,0,0,1-3.142-1.4,11.8,11.8,0,0,1-2.617-2.269,14.094,14.094,0,0,1-1.92-3.141,15.914,15.914,0,0,1-1.4-3.665,22.083,22.083,0,0,1-.349-4.363A20.366,20.366,0,0,1,29.74,37a17.572,17.572,0,0,1,1.4-3.839,13.97,13.97,0,0,1,1.92-3.141,12.464,12.464,0,0,1,2.617-2.443,11.268,11.268,0,0,1,3.142-1.4,13.5,13.5,0,0,1,3.665-.524A12.765,12.765,0,0,1,45.445,26a10.818,10.818,0,0,1,2.618,1.047,9.78,9.78,0,0,1,2.094,1.571,9.37,9.37,0,0,1,1.745,1.92V26.352h8.726l-.06,29.493H51.9V51.656a10.092,10.092,0,0,1-1.745,2.094,8.881,8.881,0,0,1-2.094,1.4,11.206,11.206,0,0,1-2.618,1.048,13.275,13.275,0,0,1-2.966.349A13.979,13.979,0,0,1,38.814,56.02Zm1.221-21.291a10.319,10.319,0,0,0-1.92,6.458,10.24,10.24,0,0,0,1.92,6.458A6.066,6.066,0,0,0,45.1,49.737a6.155,6.155,0,0,0,5.062-2.268c1.164-1.474,1.745-3.491,1.745-6.283a10.365,10.365,0,0,0-1.745-6.458A6.1,6.1,0,0,0,45.1,32.459,5.991,5.991,0,0,0,40.036,34.728Z" transform="translate(36.561 42)" stroke="rgba(0,0,0,0)" stroke-miterlimit="10" stroke-width="1"/>
  </g>
</svg>
