<svg id="Layer_1" data-name="Layer 1" xmlns="http://www.w3.org/2000/svg" viewBox="0 0 635.35 406.2"><title>logo-black</title><circle cx="576.97" cy="383.2" r="23"/><polygon points="257 0 116.43 0 91.4 0 0 0 0 49.81 42.1 49.81 42.03 49.89 99.4 49.89 99.4 324.32 160.23 324.32 160.23 324.32 160.23 49.89 257 49.89 257 0"/><path d="M297.91,175.5c-2.56-4.33-6.39-7.55-10-11a56,56,0,0,0-12-9,61.77,61.77,0,0,0-15-6,73.06,73.06,0,0,0-17-2,77.14,77.14,0,0,0-21,3,64.5,64.5,0,0,0-18,8c-5.67,3.72-10.58,8.75-15,14a79.89,79.89,0,0,0-11,18c-3.17,6.78-6.42,14.28-8,22a116.91,116.91,0,0,0-2,24c0,8.67.42,17.36,2,25s4.83,14.39,8,21,6.61,12.92,11,18a67.53,67.53,0,0,0,15,13,65.85,65.85,0,0,0,18,8,80,80,0,0,0,21,3,76.18,76.18,0,0,0,17-2,64.11,64.11,0,0,0,15-6c4.67-2.44,8.39-4.61,12-8a57.7,57.7,0,0,0,10-12v24h49.65l.35-169h-50Zm-10,97c-6.67,8.45-16.55,13-29,13-12.67,0-22.22-3.67-29-12s-11-21.22-11-37,4.11-28.11,11-37,16.55-13,29-13,22.33,4.44,29,13,10,21,10,37S294.58,264.05,287.91,272.5Z" transform="translate(-0.5 -0.5)"/><path d="M228.85,132.57V115.41c0-6.91-2.66-11.15-8.9-11.15-3.87,0-6.7,1.95-8.84,3.79l.4-5V93.51H203v39.07h8.5V113.91c1.85-1.73,3.18-2.68,5.32-2.68,2.43,0,3.53,1.23,3.53,5.24v16.1Z" transform="translate(-0.5 -0.5)"/><path d="M182.48,104.94l-4.39.33v6.07H182v11.2c0,6.41,2.77,10.7,9.88,10.7a21.34,21.34,0,0,0,6.36-1l-1.33-6a8.38,8.38,0,0,1-2.72.56c-2.25,0-3.7-1.28-3.7-4.4V111.35h6.88v-6.41h-6.88V97.58Z" transform="translate(-0.5 -0.5)"/><path d="M260.06,117.54c0-7.52-4-13.26-12.2-13.26-6.87,0-13.52,5.51-13.52,14.49h0c0,9.14,6.3,14.49,14.51,14.49A19.24,19.24,0,0,0,259,130.13l-2.83-5A11.86,11.86,0,0,1,250,127c-3.81,0-6.71-1.84-7.46-6h17.17A15.68,15.68,0,0,0,260.06,117.54Zm-17.57-1.62c.58-3.68,2.89-5.41,5.55-5.41,3.41,0,4.8,2.23,4.8,5.41Z" transform="translate(-0.5 -0.5)"/><polygon points="578.71 152.25 539.52 259.91 500.03 152.25 466.14 152.25 466.14 211.07 511.05 318.52 471.86 406.13 528.19 406.13 528.2 406.13 635.35 152.25 578.71 152.25"/><polygon points="412.51 324.12 455.88 281.09 455.88 64.61 412.51 64.61 412.51 324.12"/><polygon points="357.51 324.12 400.88 281.09 400.88 64.61 357.51 64.61 357.51 324.12"/></svg>