<svg xmlns="http://www.w3.org/2000/svg" xmlns:xlink="http://www.w3.org/1999/xlink" width="234.144" height="44.301" viewBox="0 0 234.144 44.301">
  <defs>
    <radialGradient id="radial-gradient" cx="0.5" cy="0.32" r="0.267" gradientTransform="matrix(0.999, -0.041, 0.228, 5.565, -0.072, -1.439)" gradientUnits="objectBoundingBox">
      <stop offset="0" stop-color="#e8e8e8"/>
      <stop offset="1" stop-color="#e8e8e8"/>
    </radialGradient>
    <radialGradient id="radial-gradient-2" cx="0.5" cy="0.32" r="0.267" gradientTransform="matrix(0.999, -0.041, 0.228, 5.565, -0.072, -1.439)" gradientUnits="objectBoundingBox">
      <stop offset="0" stop-color="#fff"/>
      <stop offset="1" stop-color="#fff" stop-opacity="0"/>
    </radialGradient>
    <linearGradient id="linear-gradient" x1="0.5" x2="0.5" y2="1" gradientUnits="objectBoundingBox">
      <stop offset="0" stop-color="#26aeac"/>
      <stop offset="1" stop-color="#26aeac" stop-opacity="0.459"/>
    </linearGradient>
  </defs>
  <g id="progress-cover" transform="translate(-5.856)">
    <g id="Group_878" data-name="Group 878">
      <g id="Group_870" data-name="Group 870" transform="translate(240) rotate(90)">
        <g id="Group_869" data-name="Group 869" transform="translate(0 216.816)" style="isolation: isolate">
          <ellipse id="Ellipse_81" data-name="Ellipse 81" cx="22.15" cy="8.664" rx="22.15" ry="8.664" transform="translate(0 0)" fill="#645b5b"/>
        </g>
        <path id="Path_866" data-name="Path 866" d="M0,0H44.168L42.91,211.839H0Z" transform="translate(0.1 12.853)" fill="#e8e8e8"/>
        <path id="Path_867" data-name="Path 867" d="M0,0H39.753V210.522H0Z" transform="translate(0.1 15.68)" opacity="0.49" fill="url(#radial-gradient)"/>
        <g id="Group_868" data-name="Group 868" transform="translate(0 7.528)">
          <rect id="Rectangle_415" data-name="Rectangle 415" width="44" height="220" transform="translate(0.301)" fill="#26aeac"/>
          <ellipse id="Ellipse_82" data-name="Ellipse 82" cx="22.15" cy="8.664" rx="22.15" ry="8.664" transform="translate(0 27.175)" fill="none"/>
          <ellipse id="Ellipse_83" data-name="Ellipse 83" cx="22.15" cy="8.664" rx="22.15" ry="8.664" transform="translate(0 209.175)" fill="#26aeac"/>
        </g>
        <path id="Path_864" data-name="Path 864" d="M0,0H39.753V229.995H0Z" transform="translate(0.099 4.012)" opacity="0.49" fill="url(#radial-gradient-2)"/>
        <g id="Group_866" data-name="Group 866">
          <ellipse id="Ellipse_81-2" data-name="Ellipse 81" cx="22.15" cy="7.664" rx="22.15" ry="7.664" transform="translate(0)" fill="#26aeac"/>
          <path id="Path_861" data-name="Path 861" d="M43.838,0V5.856c-1.312,4.294-10.626,7.621-21.92,7.621S1.312,10.15,0,5.856V0C1.312,4.294,10.624,7.621,21.918,7.621S42.526,4.294,43.838,0Z" transform="translate(0.231 6.707)" fill="url(#linear-gradient)"/>
        </g>
      </g>
    </g>
  </g>
</svg>
