<svg id="search" xmlns="http://www.w3.org/2000/svg" width="25.417" height="24.345" viewBox="0 0 25.417 24.345">
  <path id="Shape" d="M24.371,24.345a.79.79,0,0,1-.635-.208l-6.867-5.858A9.634,9.634,0,0,1,6.336,20.3a10.145,10.145,0,0,1-3.359-2.352,10.777,10.777,0,0,1,0-14.873,9.658,9.658,0,0,1,14.171.042,10.8,10.8,0,0,1,1.072,13.5l6.748,5.733a1.1,1.1,0,0,1,.238,1.537A.932.932,0,0,1,24.371,24.345ZM10.042,2.2a7.844,7.844,0,0,0-5.6,2.451A8.407,8.407,0,0,0,2.1,10.511a8.555,8.555,0,0,0,2.342,5.858,7.676,7.676,0,0,0,5.6,2.452,7.573,7.573,0,0,0,5.6-2.452,8.407,8.407,0,0,0,2.342-5.858,8.6,8.6,0,0,0-2.342-5.858A7.677,7.677,0,0,0,10.042,2.2Z" transform="translate(0 0)" fill="#fff"/>
</svg>
