<svg xmlns="http://www.w3.org/2000/svg" width="434.582" height="428.302" viewBox="0 0 434.582 428.302">
  <g id="shapw" transform="matrix(0.777, 0.629, -0.629, 0.777, 198.448, -93.094)">
    <g id="Group_395" data-name="Group 395" transform="translate(44 84.159)">
      <path id="Path_801" data-name="Path 801" d="M370.993,222.814,292.751,87.6a7.237,7.237,0,0,0-6.508-3.445H129.754a7.237,7.237,0,0,0-6.508,3.445L45,222.97a7.385,7.385,0,0,0,0,7.436L123.246,365.92a7.507,7.507,0,0,0,6.508,3.753H286.242a7.545,7.545,0,0,0,6.508-3.792l78.242-135.536A7.558,7.558,0,0,0,370.993,222.814ZM281.907,354.645H134.09l-73.9-127.728,73.9-127.732H281.906l73.9,127.732Z" transform="translate(-44 -84.159)" fill="#53c9c7"/>
    </g>
  </g>
</svg>
