<svg xmlns="http://www.w3.org/2000/svg" width="45.866" height="32.533" viewBox="0 0 45.866 32.533">
  <path id="slider-arrow-left" d="M25.94,11.875a2.18,2.18,0,0,1,.017,3.117L15.427,25.31h36.08a2.2,2.2,0,1,1,0,4.405H15.444L25.975,40.034a2.2,2.2,0,0,1-.017,3.117,2.278,2.278,0,0,1-3.17-.017L8.516,29.072h0a2.47,2.47,0,0,1-.468-.695,2.063,2.063,0,0,1-.173-.847,2.183,2.183,0,0,1,.641-1.542L22.788,11.925A2.241,2.241,0,0,1,25.94,11.875Z" transform="translate(-7.875 -11.252)" fill="#57758c"/>
</svg>
