<svg xmlns="http://www.w3.org/2000/svg" width="59.866" height="32.533" viewBox="0 0 59.866 32.533">
  <path id="slider-arrow-right" d="M39.676,11.875a2.18,2.18,0,0,0-.017,3.117L50.189,25.31H.109a2.2,2.2,0,1,0,0,4.405H50.172L39.641,40.033a2.2,2.2,0,0,0,.017,3.117,2.278,2.278,0,0,0,3.17-.017L57.1,29.071h0a2.47,2.47,0,0,0,.468-.695,2.063,2.063,0,0,0,.173-.847,2.183,2.183,0,0,0-.641-1.542L42.828,11.925A2.241,2.241,0,0,0,39.676,11.875Z" transform="translate(2.125 -11.252)" fill="#57758c"/>
</svg>
