<svg xmlns="http://www.w3.org/2000/svg" xmlns:xlink="http://www.w3.org/1999/xlink" width="100" height="100" viewBox="0 0 100 100">
  <defs>
    <linearGradient id="linear-gradient" x1="-0.229" y1="0.11" x2="1" y2="0.908" gradientUnits="objectBoundingBox">
      <stop offset="0" stop-color="#fec380"/>
      <stop offset="1" stop-color="#fcb087"/>
    </linearGradient>
  </defs>
  <g id="thank-thumb" transform="translate(-1137.786 -123.786)">
    <circle id="Ellipse_4" data-name="Ellipse 4" cx="50" cy="50" r="50" transform="translate(1137.786 123.786)" fill="url(#linear-gradient)"/>
    <g id="Group_203" data-name="Group 203" transform="translate(1167.485 154.108)">
      <g id="Group_200" data-name="Group 200" transform="translate(0 16.982)">
        <g id="Group_199" data-name="Group 199">
          <path id="Path_9" data-name="Path 9" d="M4.245,224A4.251,4.251,0,0,0,0,228.245v13.586a4.251,4.251,0,0,0,4.245,4.245H9.34a4.215,4.215,0,0,0,2.547-.859V224Z" transform="translate(0 -224)" fill="#fff"/>
        </g>
      </g>
      <g id="Group_202" data-name="Group 202" transform="translate(13.586)">
        <g id="Group_201" data-name="Group 201" transform="translate(0 0)">
          <path id="Path_10" data-name="Path 10" d="M197.838,34.017a3.766,3.766,0,0,0-1.106-2.673A4.216,4.216,0,0,0,197.82,28.1a4.39,4.39,0,0,0-4.429-3.85H182.9a24.416,24.416,0,0,0,1.352-6.793c0-3.683-3.13-6.793-5.095-6.793a5.341,5.341,0,0,0-3.079,1.034.853.853,0,0,0-.318.664v5.759l-4.891,10.6-.2.1v18.2a11.126,11.126,0,0,0,4.245,1H190.5a3.906,3.906,0,0,0,3.848-2.967,3.82,3.82,0,0,0-.307-2.551,3.8,3.8,0,0,0,1.7-5.1A3.8,3.8,0,0,0,197.838,34.017Z" transform="translate(-170.667 -10.667)" fill="#fff"/>
        </g>
      </g>
    </g>
  </g>
</svg>
