<svg xmlns="http://www.w3.org/2000/svg" width="93.875" height="86.055" viewBox="0 0 93.875 86.055">
  <g id="work-icon1" transform="translate(0 -21.333)">
    <g id="Group_558" data-name="Group 558" transform="translate(35.204 40.891)">
      <path id="Path_832" data-name="Path 832" d="M215.47,174.939a23.47,23.47,0,1,1,23.47-23.47A23.493,23.493,0,0,1,215.47,174.939Zm0-43.028a19.558,19.558,0,1,0,19.558,19.558A19.58,19.58,0,0,0,215.47,131.912Z" transform="translate(-192 -128)" fill="#34aed5"/>
    </g>
    <g id="Group_559" data-name="Group 559" transform="translate(71.91 77.6)">
      <path id="Path_833" data-name="Path 833" d="M412.2,350.173a1.965,1.965,0,0,1-1.385-.571l-18.056-18.056a1.955,1.955,0,0,1,2.765-2.766l18.056,18.056a1.954,1.954,0,0,1-1.381,3.337Z" transform="translate(-392.187 -328.208)" fill="#34aed5"/>
    </g>
    <g id="Group_560" data-name="Group 560" transform="translate(0 21.333)">
      <path id="Path_834" data-name="Path 834" d="M68.453,25.245H1.956a1.956,1.956,0,0,1,0-3.912h66.5a1.956,1.956,0,1,1,0,3.912Z" transform="translate(0 -21.333)" fill="#34aed5"/>
    </g>
    <g id="Group_561" data-name="Group 561" transform="translate(0 103.477)">
      <path id="Path_835" data-name="Path 835" d="M68.453,473.245H1.956a1.956,1.956,0,0,1,0-3.912h66.5a1.956,1.956,0,0,1,0,3.912Z" transform="translate(0 -469.333)" fill="#34aed5"/>
    </g>
    <g id="Group_562" data-name="Group 562" transform="translate(0 40.891)">
      <path id="Path_836" data-name="Path 836" d="M33.249,131.912H1.956a1.956,1.956,0,1,1,0-3.912H33.249a1.956,1.956,0,1,1,0,3.912Z" transform="translate(0 -128)" fill="#34aed5"/>
    </g>
    <g id="Group_563" data-name="Group 563" transform="translate(0 83.919)">
      <path id="Path_837" data-name="Path 837" d="M33.249,366.579H1.956a1.956,1.956,0,1,1,0-3.912H33.249a1.956,1.956,0,1,1,0,3.912Z" transform="translate(0 -362.667)" fill="#34aed5"/>
    </g>
    <g id="Group_564" data-name="Group 564" transform="translate(0 62.405)">
      <path id="Path_838" data-name="Path 838" d="M25.425,249.245H1.956a1.956,1.956,0,1,1,0-3.912h23.47a1.956,1.956,0,0,1,0,3.912Z" transform="translate(0 -245.333)" fill="#34aed5"/>
    </g>
  </g>
</svg>
