<svg xmlns="http://www.w3.org/2000/svg" width="122.928" height="110.289" viewBox="0 0 122.928 110.289">
  <g id="work-icon3" transform="translate(-0.003 -11.795)">
    <path id="Path_807" data-name="Path 807" d="M309.53,76.276a1.65,1.65,0,1,0-2.892,1.587,36.935,36.935,0,0,1,2.337,5.194H261.345a32.864,32.864,0,0,1,9.192-13.817l6.2-4.752c.232.373,17.572-.1,18,0,.122.028,2.922,1.7,3.154,1.327l1.889,3.429a30.34,30.34,0,0,1,3.343,3.436,1.65,1.65,0,1,0,2.538-2.108A33.729,33.729,0,0,0,301.1,66.03a10.44,10.44,0,0,0,8.392-18.354,7.12,7.12,0,0,0-.9-9.926c.134-3.036.011-12.5-6.023-19.18-4.059-4.5-9.917-6.774-17.411-6.774s-13.352,2.279-17.411,6.774c-6.029,6.678-6.157,16.129-6.023,19.173a7.131,7.131,0,0,0,4.623,12.563,7.232,7.232,0,0,0,.9-.057A18.052,18.052,0,0,0,274.4,62.582a30.69,30.69,0,0,0-4.955,3.269,36.747,36.747,0,0,0-11.96,18.381,1.649,1.649,0,0,0,1.579,2.125h52.194a1.649,1.649,0,0,0,1.579-2.125,41.281,41.281,0,0,0-3.307-7.955ZM281.938,64.488c1.236,0,7.711.243,8.9,0ZM310,55.742a7.138,7.138,0,0,1-12.108,5.127,18,18,0,0,0,5.174-10.62,7.232,7.232,0,0,0,.9.057,7.1,7.1,0,0,0,2.769-.559,7.1,7.1,0,0,1,3.268,6ZM294.738,37.9a5.175,5.175,0,0,1,5.16,4.876v.585a5.169,5.169,0,1,1-5.16-5.462Zm-8.306,3.519H283.88A8.5,8.5,0,0,0,278.127,35a113.454,113.454,0,0,0,11.844-8.686,50.681,50.681,0,0,0,5.556,8.33c-.26-.024-.523-.038-.789-.038a8.482,8.482,0,0,0-8.306,6.819ZM307.8,43.171a3.821,3.821,0,0,1-4.6,3.755V39.415a3.821,3.821,0,0,1,4.6,3.755Zm-40.683,3.755a3.836,3.836,0,1,1,0-7.511Zm-.766-10.89a7.133,7.133,0,0,0-1.338.128c.049-3.519.758-10.49,5.2-15.4,3.406-3.763,8.436-5.671,14.949-5.671S296.7,17,300.109,20.766c4.444,4.909,5.152,11.88,5.2,15.4a7.107,7.107,0,0,0-3.475.2c-5.985-5-9.8-13.273-9.836-13.359a1.65,1.65,0,0,0-2.6-.546c-.1.092-10.164,9.067-20.662,13.987a7.08,7.08,0,0,0-2.382-.408Zm4.065,6.745a5.169,5.169,0,1,1,0,.585Zm.108,7.084a8.462,8.462,0,0,0,13.358-5.141h2.552a8.462,8.462,0,0,0,13.358,5.141,14.738,14.738,0,0,1-29.267,0Z" transform="translate(-190.369)" fill="#34aed5"/>
    <path id="Path_808" data-name="Path 808" d="M49.428,113.662a1.649,1.649,0,0,0,.257-1.458c-3.5-11.685-10.786-17.082-14.893-19.285q.6-.463,1.152-.979a12.058,12.058,0,0,0,6.7,3.936,18,18,0,0,0,4.045.463c.587,0,.95-.031.987-.035a1.649,1.649,0,0,0,1.486-1.415,14.758,14.758,0,0,0-3.907-12.632c-.244-.258-.491-.5-.737-.729a6.521,6.521,0,0,0,1.394-10.744c.113-2.815-.055-11.174-5.408-17.1C36.86,49.643,31.6,47.6,24.883,47.6,18.5,47.6,13.423,49.45,9.8,53.107a1.65,1.65,0,0,0,2.345,2.321c2.977-3.008,7.262-4.534,12.736-4.534,5.739,0,10.167,1.676,13.161,4.983C41.867,60.1,42.551,66.07,42.62,69.236a6.554,6.554,0,0,0-1.013-.079,6.476,6.476,0,0,0-2.075.339,23.023,23.023,0,0,1-5.5-4.763,46.545,46.545,0,0,1-3.055-3.788A1.65,1.65,0,0,0,28.6,60.6c-.1.08-9.879,7.825-18.065,9.006a6.463,6.463,0,0,0-2.385-.453,6.55,6.55,0,0,0-1.01.078A24.623,24.623,0,0,1,8.9,60.39a1.649,1.649,0,0,0-3.04-1.281A28.514,28.514,0,0,0,3.853,70.777,6.521,6.521,0,0,0,5.238,81.528c-.246.229-.493.471-.737.729A14.757,14.757,0,0,0,.594,94.889,1.649,1.649,0,0,0,2.08,96.3c.037,0,.4.035.987.035a17.992,17.992,0,0,0,4.045-.463,12.058,12.058,0,0,0,6.7-3.936q.553.516,1.152.979c-4.107,2.2-11.392,7.6-14.894,19.285a1.65,1.65,0,0,0,1.58,2.123H48.1a1.649,1.649,0,0,0,1.323-.665ZM41.109,72.5a3.23,3.23,0,1,1,0,6.374Zm-.23,10.289a11.682,11.682,0,0,1,5.146,10.238c-2.02-.091-5.8-.678-7.872-3.624A16.132,16.132,0,0,0,40.878,82.788ZM4.92,75.687a3.234,3.234,0,0,1,3.23-3.23,3.27,3.27,0,0,1,.5.043v6.374A3.206,3.206,0,0,1,4.92,75.687ZM3.733,93.021A11.684,11.684,0,0,1,8.879,82.788,16.14,16.14,0,0,0,11.6,89.4C9.538,92.326,5.755,92.922,3.733,93.021Zm8.215-12.94V72.717C18.924,71.372,26.313,66.4,29.3,64.211c1.645,2.116,5.038,6.127,8.509,8.1v7.768a12.931,12.931,0,0,1-25.862,0ZM29.3,95.694a11.523,11.523,0,0,1-.436,1.4c-1.281,3.3-3.315,3.3-3.983,3.3s-2.7,0-3.982-3.3a11.523,11.523,0,0,1-.436-1.4,16.146,16.146,0,0,0,8.837,0ZM3.939,111.028A28.786,28.786,0,0,1,12.72,98.4a24.1,24.1,0,0,1,4.318-2.828c.7,3.628,2.85,8.121,7.84,8.121s7.143-4.492,7.84-8.121A24.064,24.064,0,0,1,37.037,98.4a28.788,28.788,0,0,1,8.781,12.629H3.939Z" transform="translate(0 -27.941)" fill="#34aed5"/>
    <path id="Path_809" data-name="Path 809" d="M98.829,375.278,82.478,371.27a1.218,1.218,0,0,0-1.432,1.606l1.046,2.825c-3.081,1.29-13.463,4.883-30.289,3.214a1.218,1.218,0,0,0-.241,2.424c3.216.319,6.2.455,8.95.455,15.24,0,23.294-4.169,23.687-4.378a1.217,1.217,0,0,0,.571-1.5l-.642-1.735,12.446,3.051-7.241,11.005-.894-2.415a1.218,1.218,0,0,0-1.538-.729,63.753,63.753,0,0,1-34.412,1.943,83.472,83.472,0,0,1-25-10.007.419.419,0,0,1,.345-.758,120.627,120.627,0,0,0,18.832,4.456,1.218,1.218,0,1,0,.359-2.409,118.2,118.2,0,0,1-18.45-4.367,2.855,2.855,0,0,0-2.337,5.168,84.254,84.254,0,0,0,25.745,10.3,66.213,66.213,0,0,0,34.58-1.646l1.321,3.568a1.218,1.218,0,0,0,2.16.246l9.513-14.458a1.218,1.218,0,0,0-.728-1.852Z" transform="translate(0.046 -270.053)" fill="#34aed5"/>
  </g>
</svg>
