<svg xmlns="http://www.w3.org/2000/svg" width="88.786" height="105.339" viewBox="0 0 88.786 105.339">
  <g id="work-icon2" transform="translate(-40.229)">
    <path id="Path_822" data-name="Path 822" d="M283.476,135.816a1.546,1.546,0,0,0,1.546-1.546V131.8a1.546,1.546,0,1,0-3.092,0v2.475A1.546,1.546,0,0,0,283.476,135.816Z" transform="translate(-191.973 -103.451)" fill="#34aed5"/>
    <path id="Path_823" data-name="Path 823" d="M217.679,135.816a1.546,1.546,0,0,0,1.546-1.546V131.8a1.546,1.546,0,0,0-3.092,0v2.475A1.546,1.546,0,0,0,217.679,135.816Z" transform="translate(-139.713 -103.451)" fill="#34aed5"/>
    <path id="Path_824" data-name="Path 824" d="M229.852,180.593a6.277,6.277,0,0,0,10.762,0,1.549,1.549,0,1,0-2.842-1.232h0a3.323,3.323,0,0,1-5.079,0h0a1.549,1.549,0,1,0-2.841,1.232Z" transform="translate(-150.499 -141.7)" fill="#34aed5"/>
    <path id="Path_830" data-name="Path 830" d="M121.284,66.382h-11.1a34,34,0,0,0-10.8-16.025A28.656,28.656,0,0,0,94.8,47.33a16.829,16.829,0,0,0,6.632-11.469,6.748,6.748,0,0,0,.829.052,6.655,6.655,0,0,0,4.106-11.9,19.452,19.452,0,0,0,.526-10.5,1.546,1.546,0,0,0-3.012.7,16.329,16.329,0,0,1-.342,8.5,6.652,6.652,0,0,0-3.469.246c-4.334-2.335-9.047-8.984-9.1-9.054a1.546,1.546,0,0,0-2.23-.319c-.1.084-10.428,8.259-19.065,9.482a6.643,6.643,0,0,0-3.862-.334c-.512-5.631.671-10.161,3.527-13.483,3.908-4.546,10.511-6.165,15.387-6.165a10.98,10.98,0,0,1,7.58,2.777,1.56,1.56,0,0,0,1.388.456A9.364,9.364,0,0,1,100.18,7.9a7.682,7.682,0,0,1,1.4,1.348,1.546,1.546,0,0,0,2.4-1.951,10.763,10.763,0,0,0-1.964-1.888A12.306,12.306,0,0,0,93.952,3.19,14.476,14.476,0,0,0,84.734,0C82.035,0,72.78.522,67,7.241c-3.632,4.223-5.019,9.928-4.133,16.964A6.655,6.655,0,0,0,67.2,35.914a6.746,6.746,0,0,0,.829-.052A16.829,16.829,0,0,0,74.664,47.33,29.477,29.477,0,0,0,67.81,52.38a1.546,1.546,0,1,0,2.166,2.206A25.859,25.859,0,0,1,77.1,49.578l2.65,6.716L77.908,66.382H62.557a33.272,33.272,0,0,1,3.667-7.274,1.546,1.546,0,0,0-2.563-1.73,36.767,36.767,0,0,0-4.373,9H47.959a7.739,7.739,0,0,0-7.73,7.73v23.5a7.739,7.739,0,0,0,7.73,7.73h53.369a1.546,1.546,0,1,0,0-3.092H47.959a4.643,4.643,0,0,1-4.638-4.638v-23.5a4.643,4.643,0,0,1,4.638-4.638h73.325a4.643,4.643,0,0,1,4.638,4.638v23.5a4.643,4.643,0,0,1-4.638,4.638H107.512a1.546,1.546,0,1,0,0,3.092h13.772a7.739,7.739,0,0,0,7.73-7.73v-23.5a7.739,7.739,0,0,0-7.73-7.73ZM87.067,54.591H82.4l-1.739-4.407a16.8,16.8,0,0,0,8.143,0Zm18.765-25.336a3.552,3.552,0,0,1-4.273,3.493V25.761a3.552,3.552,0,0,1,4.273,3.493Zm-42.2,0a3.552,3.552,0,0,1,4.273-3.493v6.987a3.552,3.552,0,0,1-4.273-3.493ZM71,33.859V25.992a40.289,40.289,0,0,0,12.846-5.337c2.4-1.431,4.359-2.8,5.555-3.68,1.685,2.183,5.345,6.56,9.065,8.638v8.246a13.733,13.733,0,0,1-27.466,0Zm10.05,32.523,1.588-8.7h4.19l1.588,8.7Zm10.51,0L89.719,56.294l2.651-6.718c3.04,1.4,10.568,5.858,14.543,16.806Z" fill="#34aed5"/>
    <g id="Group_557" data-name="Group 557" transform="translate(47.934 69.867)">
      <path id="Path_820" data-name="Path 820" d="M224.077,409.81a2.009,2.009,0,1,0,0,4.019h6.479a2.009,2.009,0,0,0,0-4.019Z" transform="translate(-196.28 -395.091)" fill="#34aed5"/>
      <text id="_18" data-name="18" transform="translate(46.753 24.353)" fill="#34aed5" font-size="23" font-family="Roboto-Black, Roboto" font-weight="800" letter-spacing="0.008em"><tspan x="0" y="0">18</tspan></text>
      <text id="_0" data-name="0" transform="translate(-0.247 24.353)" fill="#34aed5" font-size="23" font-family="Roboto-Black, Roboto" font-weight="800" letter-spacing="0.008em"><tspan x="0" y="0">0</tspan></text>
    </g>
  </g>
</svg>
